<svg viewBox="0 0 800 600" xmlns="http://www.w3.org/2000/svg">
  <defs>
    <linearGradient id="grad2" x1="0%" y1="0%" x2="100%" y2="100%">
      <stop offset="0%" style="stop-color:#0F172A;stop-opacity:1" />
      <stop offset="100%" style="stop-color:#1E293B;stop-opacity:1" />
    </linearGradient>
  </defs>
  <rect width="800" height="600" fill="url(#grad2)"/>
  <rect x="50" y="50" width="700" height="500" fill="none" stroke="#11448e" stroke-width="2" rx="10"/>
  <rect x="70" y="70" width="150" height="120" fill="#11448e" opacity="0.3" rx="5"/>
  <rect x="240" y="70" width="150" height="120" fill="#11448e" opacity="0.5" rx="5"/>
  <rect x="410" y="70" width="150" height="120" fill="#11448e" opacity="0.7" rx="5"/>
  <rect x="580" y="70" width="150" height="120" fill="#11448e" rx="5"/>
  <line x1="70" y1="220" x2="730" y2="220" stroke="#334155" stroke-width="1"/>
  <polyline points="100,380 150,320 200,350 250,280 300,310 350,260 400,300 450,240 500,280" fill="none" stroke="#10B981" stroke-width="3" stroke-linecap="round"/>
  <circle cx="100" cy="380" r="4" fill="#10B981"/>
  <circle cx="150" cy="320" r="4" fill="#10B981"/>
  <circle cx="200" cy="350" r="4" fill="#10B981"/>
  <circle cx="250" cy="280" r="4" fill="#10B981"/>
  <circle cx="300" cy="310" r="4" fill="#10B981"/>
  <circle cx="350" cy="260" r="4" fill="#10B981"/>
  <circle cx="400" cy="300" r="4" fill="#10B981"/>
  <circle cx="450" cy="240" r="4" fill="#10B981"/>
  <circle cx="500" cy="280" r="4" fill="#10B981"/>
  <text x="400" y="550" font-size="32" font-weight="bold" text-anchor="middle" fill="white" font-family="Arial">Análise de Dados</text>
</svg>
