<svg xmlns="http://www.w3.org/2000/svg" width="422" height="258" viewBox="0 0 422 258">
<g>
<path d="M 206.50 125.53 C205.95,125.36 202.80,124.63 199.50,123.91 C196.14,123.18 192.35,121.69 188.67,119.72 C188.69,119.49 188.32,118.86 187.63,117.89 C186.82,116.72 186.31,115.26 186.51,114.64 C186.66,114.15 185.19,112.37 183.00,110.31 C184.92,111.83 186.62,112.95 187.31,112.96 C189.00,113.00 188.97,112.73 186.95,109.12 C185.77,107.03 183.49,104.88 181.24,103.32 C183.13,104.51 184.96,105.91 185.68,106.88 C186.53,108.01 186.49,107.30 185.53,104.50 C184.32,100.94 184.35,100.44 185.79,99.91 C186.08,99.81 186.25,99.69 186.31,99.54 C190.07,102.81 192.98,106.85 194.05,110.66 C196.31,118.76 203.84,123.76 207.80,119.80 C208.46,119.14 209.00,117.15 209.00,115.39 C209.00,111.79 204.36,107.00 200.87,107.00 C197.50,107.00 193.49,104.32 188.18,98.51 C187.67,97.95 187.19,97.41 186.74,96.88 C186.79,96.68 186.57,96.07 186.00,95.00 C185.41,93.90 185.19,93.00 185.50,93.00 C185.81,93.00 185.51,91.99 184.82,90.75 C184.13,89.51 183.53,88.05 183.49,87.50 C183.31,85.44 187.23,77.39 189.81,74.50 C191.35,72.77 190.64,73.19 188.13,75.50 C183.06,80.15 181.04,84.01 181.84,88.32 C181.03,84.43 182.72,80.92 186.81,76.67 C191.17,72.14 194.92,70.00 198.50,70.00 C201.80,70.00 206.57,67.56 207.38,65.46 C209.14,60.86 207.75,56.44 203.93,54.46 C199.88,52.37 198.22,52.63 195.01,55.84 C193.08,57.76 191.95,60.17 191.47,63.32 C191.29,64.57 191.00,65.69 190.57,66.78 C190.11,67.07 189.33,67.83 188.45,68.87 C185.62,72.24 183.00,72.09 183.00,68.55 C183.00,67.32 183.90,63.70 185.00,60.50 C186.75,55.42 187.22,53.98 186.62,54.18 C190.75,48.93 196.29,44.04 199.52,43.43 C204.33,42.53 206.93,43.69 212.21,49.13 C216.59,53.64 217.83,56.21 219.47,64.23 C220.59,69.72 229.32,71.77 233.55,67.55 C234.00,67.09 234.38,66.70 234.70,66.33 C234.66,66.39 234.63,66.45 234.59,66.50 C233.72,67.84 233.00,69.62 233.00,70.46 C233.00,71.31 232.59,72.00 232.10,72.00 C231.15,72.00 229.00,77.32 229.00,79.65 C229.00,80.37 229.30,80.78 229.83,80.91 C219.28,83.58 216.24,88.22 221.07,94.37 C223.77,97.79 227.88,97.82 231.89,94.44 C232.64,93.81 233.29,93.10 233.83,92.34 C233.50,92.85 233.16,93.31 232.83,93.67 C231.72,94.86 230.70,97.33 230.58,99.17 C230.45,101.00 229.83,103.48 229.18,104.67 C228.60,105.75 228.33,106.28 228.57,106.36 C223.20,108.07 218.09,106.15 213.20,100.58 C210.34,97.31 208.02,91.67 208.01,87.92 C208.00,87.06 206.85,85.27 205.44,83.95 C202.16,80.86 195.50,80.59 193.40,83.46 C189.61,88.65 193.67,97.00 199.99,97.00 C204.80,97.00 209.13,99.31 213.75,104.33 C217.30,108.20 218.00,109.63 218.00,113.04 C218.00,119.22 219.36,121.00 224.05,121.00 C227.42,121.00 228.32,120.53 229.90,117.93 C230.70,116.62 231.55,114.42 232.06,112.49 C231.88,113.51 231.73,114.64 231.59,115.93 C231.26,118.82 230.72,121.64 230.38,122.20 C230.10,122.65 230.25,122.85 230.73,122.82 C228.78,123.47 226.72,124.01 224.48,124.49 C218.20,125.82 209.13,126.35 206.50,125.53 ZM 187.79 31.45 C196.01,26.87 205.80,24.64 216.61,25.20 C220.51,25.40 224.43,26.07 228.17,27.14 C227.62,27.82 228.22,30.88 229.36,32.53 C229.82,33.20 230.53,34.71 231.22,36.43 C229.65,32.71 228.08,30.86 225.94,29.97 C223.50,28.96 222.60,29.03 220.51,30.40 C215.59,33.63 218.78,41.06 225.91,42.98 C227.33,43.36 228.88,44.07 230.47,45.03 C229.87,45.24 229.54,46.56 229.63,48.50 C229.72,50.43 229.35,52.28 228.81,52.61 C228.28,52.95 229.17,54.04 230.81,55.03 C233.16,56.46 234.77,58.92 235.31,61.38 C235.12,60.84 234.87,60.24 234.58,59.53 C233.04,55.84 228.65,53.00 224.50,53.00 C221.14,53.00 217.19,50.91 213.81,47.34 C210.50,43.84 209.00,40.02 209.00,35.10 C209.00,30.00 206.15,28.34 200.54,30.20 C196.84,31.43 196.51,31.88 194.54,38.47 C192.96,43.76 191.50,46.36 188.48,49.30 C187.09,50.65 185.56,51.91 184.03,52.99 C185.06,52.09 185.34,51.26 185.18,50.14 C185.00,48.89 185.49,46.89 186.26,45.69 C187.04,44.48 187.95,42.38 188.30,41.00 L 188.92 38.50 L 186.98 41.00 C186.95,41.05 186.91,41.10 186.87,41.14 C188.13,38.88 188.30,37.00 186.62,37.00 C185.97,37.00 183.61,38.92 181.19,41.18 C183.87,38.44 185.97,35.73 185.98,34.95 C185.99,34.10 186.56,32.80 187.25,32.08 C187.51,31.80 187.70,31.59 187.79,31.45 ZM 170.75 47.75 C173.42,43.50 176.62,39.79 180.29,36.66 C176.97,39.90 173.26,44.16 170.75,47.75 ZM 230.93 28.01 C237.39,30.23 243.15,33.62 247.13,37.73 C243.77,34.51 240.44,32.34 236.19,30.38 C234.20,29.45 232.34,28.62 230.93,28.01 ZM 182.85 116.03 C183.42,116.46 183.95,116.85 184.43,117.20 C183.06,116.29 181.74,115.33 180.50,114.33 C177.26,111.72 174.13,107.97 171.42,103.66 C174.62,108.55 178.52,112.82 182.85,116.03 ZM 235.95 49.09 C239.38,52.10 242.48,55.73 244.21,58.96 C242.59,56.30 239.05,52.17 235.95,49.09 ZM 263.62 80.71 C263.06,86.91 261.36,92.63 258.46,98.07 C261.22,92.53 262.93,86.63 263.62,80.71 ZM 232.74 40.57 C233.95,43.57 236.30,46.77 239.08,49.53 C236.13,46.77 233.74,43.69 232.93,41.16 C232.87,40.96 232.80,40.76 232.74,40.57 ZM 181.79 46.81 C183.14,45.85 184.37,44.63 185.36,43.38 C185.15,43.75 185.03,44.03 185.02,44.17 C185.01,44.67 183.53,45.78 181.79,46.81 ZM 174.84 93.06 C174.81,93.05 174.78,93.04 174.75,93.03 C172.03,92.17 170.04,90.66 168.95,88.71 C169.96,90.39 171.84,91.76 174.84,93.06 ZM 241.55 98.46 C240.86,99.06 240.15,99.73 239.39,100.48 C237.46,102.38 236.04,103.88 234.99,105.29 C236.66,102.92 238.97,100.52 241.55,98.46 ZM 244.75 73.19 C242.33,75.07 239.69,77.85 238.08,80.22 C238.98,78.69 240.18,77.29 241.81,75.70 C242.80,74.74 243.78,73.90 244.75,73.19 ZM 245.51 66.28 C245.33,67.12 245.05,67.94 244.67,68.68 C243.85,70.26 242.19,72.26 240.27,74.16 C240.44,73.99 240.60,73.81 240.77,73.64 C243.48,70.70 244.98,68.49 245.51,66.28 ZM 181.72 77.29 C183.38,75.96 185.49,73.90 187.27,71.94 C187.11,72.13 186.95,72.32 186.77,72.52 C184.98,74.56 183.33,76.13 181.72,77.29 ZM 254.67 104.12 C252.96,106.46 251.02,108.77 248.81,111.05 C247.67,112.24 246.54,113.33 245.40,114.34 C248.67,111.38 252.02,107.68 254.67,104.12 ZM 253.63 70.00 C252.29,70.04 250.26,70.45 248.64,71.00 C250.25,70.36 251.90,70.03 253.63,70.00 ZM 236.35 84.40 C236.09,85.67 235.75,87.28 235.49,88.50 C235.48,88.56 235.46,88.62 235.45,88.68 C235.48,88.52 235.51,88.35 235.54,88.19 C235.78,86.76 236.04,85.52 236.35,84.40 ZM 169.30 61.13 C167.81,63.78 167.43,67.03 169.20,68.80 C167.40,67.00 167.78,63.76 169.30,61.13 ZM 173.75 80.00 C175.01,80.00 176.72,79.69 178.17,79.23 C176.75,79.76 175.30,80.00 173.75,80.00 ZM 163.79 64.44 C164.45,61.75 165.27,59.16 166.24,56.71 C165.27,59.28 164.38,62.06 163.79,64.44 ZM 179.38 55.75 C177.68,56.54 176.15,57.00 174.99,57.00 C174.93,57.00 174.86,57.00 174.79,57.00 C174.93,56.99 175.07,56.98 175.20,56.98 C176.08,56.98 177.72,56.48 179.38,55.75 ZM 175.03 101.75 C175.03,101.26 175.44,101.00 176.25,101.00 C176.50,101.00 176.84,101.09 177.24,101.23 C176.05,100.87 175.20,100.98 175.03,101.75 ZM 245.23 61.25 C245.38,61.68 245.49,62.09 245.56,62.49 C245.65,62.94 245.70,63.41 245.72,63.88 C245.67,63.05 245.50,62.19 245.23,61.25 ZM 239.66 97.35 C242.36,94.04 244.69,90.43 245.56,87.83 C244.68,90.46 242.37,94.05 239.66,97.35 ZM 252.89 44.19 C253.74,45.23 254.53,46.26 255.26,47.27 C254.44,46.18 253.66,45.15 252.89,44.19 ZM 176.19 48.98 C176.61,49.00 177.12,48.93 177.68,48.78 C177.26,48.92 176.89,49.00 176.63,49.00 C176.47,49.00 176.32,48.99 176.19,48.98 ZM 233.16 108.45 C232.88,109.13 232.65,109.84 232.45,110.62 C232.59,109.92 232.83,109.20 233.16,108.45 ZM 179.93 95.20 C179.30,94.89 178.67,94.60 178.05,94.33 C178.68,94.59 179.31,94.88 179.93,95.20 ZM 259.32 63.96 C259.68,65.42 259.35,66.80 258.54,67.86 C259.35,66.79 259.68,65.42 259.32,63.96 ZM 256.42 90.64 C255.22,91.72 253.58,92.42 250.61,93.36 C250.53,93.39 250.45,93.42 250.37,93.44 C250.43,93.42 250.49,93.40 250.55,93.38 C253.56,92.43 255.22,91.73 256.42,90.64 ZM 259.64 54.61 C260.08,55.53 260.47,56.46 260.83,57.39 C260.47,56.45 260.07,55.52 259.64,54.61 Z" fill="rgba(9,127,158,1)"/>
<path d="M 182.85 116.03 C172.59,108.42 164.79,94.90 162.81,81.33 C161.73,73.96 161.82,72.39 163.79,64.44 C164.98,59.62 167.42,53.17 169.23,50.10 C172.79,44.03 182.01,34.11 186.00,32.05 C188.07,30.98 188.29,30.98 187.25,32.08 C186.56,32.80 185.99,34.10 185.98,34.95 C185.96,35.80 183.49,38.92 180.48,41.89 C174.73,47.55 173.94,49.00 176.63,49.00 C178.44,49.00 184.99,45.23 185.02,44.17 C185.03,43.80 185.92,42.38 186.98,41.00 L 188.92 38.50 L 188.30 41.00 C187.95,42.38 187.04,44.48 186.26,45.69 C185.49,46.89 185.00,48.89 185.18,50.14 C185.43,51.90 184.60,52.92 181.50,54.69 C179.30,55.94 176.47,56.97 175.20,56.98 C170.10,57.02 165.83,65.43 169.20,68.80 C170.77,70.37 176.05,70.28 178.20,68.65 C179.13,67.94 180.84,64.84 181.99,61.77 C183.13,58.70 184.73,55.64 185.54,54.97 C187.40,53.42 187.39,53.55 185.00,60.50 C183.90,63.70 183.00,67.32 183.00,68.55 C183.00,72.09 185.62,72.24 188.45,68.87 C189.85,67.21 191.00,66.27 191.00,66.78 C191.00,68.40 182.90,77.00 179.94,78.53 C178.38,79.34 175.59,80.00 173.75,80.00 C169.73,80.00 168.00,81.50 168.00,84.98 C168.00,88.72 170.48,91.68 174.75,93.03 C176.81,93.69 180.51,95.37 182.96,96.77 C186.27,98.67 187.00,99.48 185.79,99.91 C184.35,100.44 184.32,100.94 185.53,104.50 C186.49,107.30 186.53,108.01 185.68,106.88 C184.19,104.89 177.96,101.01 176.25,101.00 C173.61,101.00 175.31,103.69 180.97,108.50 C184.21,111.25 186.70,114.01 186.51,114.64 C186.31,115.26 186.82,116.72 187.63,117.89 C189.71,120.85 188.96,120.56 182.85,116.03 ZM 152.50 233.34 C151.40,233.11 149.47,232.70 148.22,232.43 C145.03,231.75 142.01,226.34 142.00,221.30 C142.00,212.65 146.06,209.00 155.68,209.00 C164.27,209.00 169.02,213.35 168.99,221.20 C168.95,229.29 161.01,235.13 152.50,233.34 ZM 225.72 232.90 C224.74,232.33 221.92,227.62 219.44,222.43 C213.40,209.76 212.00,209.87 212.00,223.00 C212.00,232.33 211.87,233.00 210.00,233.00 C208.12,233.00 208.00,232.33 208.00,222.15 C208.00,212.65 208.24,211.09 209.96,209.54 C214.30,205.60 219.77,210.74 225.09,223.75 C228.53,232.18 230.00,230.76 230.00,219.00 L 230.00 209.00 L 235.00 209.00 L 235.00 219.50 C235.00,228.67 234.75,230.25 233.00,232.00 C230.80,234.20 228.45,234.49 225.72,232.90 ZM 191.52 232.25 C190.72,231.29 188.14,226.68 185.78,222.00 C183.22,216.91 180.80,213.37 179.75,213.18 C178.18,212.89 178.00,213.88 178.00,222.93 C178.00,232.33 177.87,233.00 176.00,233.00 C174.12,233.00 174.00,232.34 174.02,222.25 C174.02,216.34 174.37,210.97 174.78,210.33 C175.90,208.56 180.57,207.70 182.74,208.86 C184.74,209.93 193.00,225.05 193.00,227.65 C193.00,228.54 193.71,229.01 194.75,228.81 C196.25,228.52 196.54,227.08 196.79,218.74 C197.05,209.82 197.24,209.00 199.04,209.00 C200.87,209.00 201.00,209.73 201.00,219.85 C201.00,229.08 200.73,230.94 199.17,232.35 C196.79,234.50 193.36,234.45 191.52,232.25 ZM 242.22 231.44 C239.62,229.62 239.28,225.47 241.48,222.33 C242.79,220.46 242.79,220.07 241.48,218.98 C239.39,217.25 239.64,213.36 242.00,211.00 C243.69,209.31 245.33,209.00 252.50,209.00 C260.33,209.00 261.00,209.16 261.00,211.00 C261.00,212.79 260.33,213.00 254.58,213.00 C246.95,213.00 245.00,213.61 245.00,216.00 C245.00,218.39 246.95,219.00 254.58,219.00 C260.29,219.00 261.00,219.22 261.00,220.96 C261.00,222.71 260.18,222.95 253.25,223.21 C245.73,223.49 245.50,223.57 245.50,226.00 C245.50,228.43 245.73,228.51 253.25,228.79 C260.18,229.05 261.00,229.29 261.00,231.04 C261.00,232.83 260.27,233.00 252.72,233.00 C246.85,233.00 243.80,232.55 242.22,231.44 ZM 162.00 227.00 C163.40,225.60 164.00,223.67 164.00,220.56 C164.00,215.16 161.57,213.00 155.50,213.00 C149.36,213.00 147.00,215.15 147.00,220.73 C147.00,227.02 148.95,229.00 155.15,229.00 C158.67,229.00 160.55,228.45 162.00,227.00 ZM 276.42 233.21 C271.14,232.42 269.78,231.69 267.97,228.72 C265.75,225.07 265.39,218.44 267.19,214.47 C268.93,210.66 272.96,209.00 280.45,209.00 C286.33,209.00 287.00,209.20 287.00,211.00 C287.00,212.77 286.33,213.00 281.11,213.00 C273.40,213.00 270.55,215.11 270.55,220.81 C270.55,227.07 272.93,229.00 280.65,229.00 C286.22,229.00 287.00,229.23 287.00,230.90 C287.00,232.42 286.13,232.87 282.67,233.15 C280.28,233.34 277.47,233.37 276.42,233.21 ZM 120.01 230.51 C115.31,225.51 116.50,212.94 121.94,210.03 C123.00,209.46 127.05,209.00 130.93,209.00 C137.33,209.00 138.00,209.19 138.00,211.00 C138.00,212.79 137.33,213.00 131.72,213.00 C123.16,213.00 121.00,214.59 121.00,220.90 C121.00,227.57 122.82,229.00 131.33,229.00 C137.33,229.00 138.00,229.20 138.00,231.00 C138.00,232.83 137.33,233.00 130.17,233.00 C123.13,233.00 122.12,232.75 120.01,230.51 ZM 298.79 223.25 L 298.50 213.50 L 294.75 213.19 C291.81,212.95 291.00,212.46 291.00,210.94 C291.00,209.16 291.77,209.00 300.50,209.00 C309.33,209.00 310.00,209.14 310.00,211.00 C310.00,212.62 309.33,213.00 306.50,213.00 L 303.00 213.00 L 303.00 223.00 C303.00,232.27 302.86,233.00 301.04,233.00 C299.24,233.00 299.05,232.18 298.79,223.25 ZM 184.51 94.37 C179.85,87.27 180.83,82.20 188.13,75.50 C190.64,73.19 191.35,72.77 189.81,74.50 C187.23,77.39 183.31,85.44 183.49,87.50 C183.53,88.05 184.13,89.51 184.82,90.75 C185.51,91.99 185.81,93.00 185.50,93.00 C185.19,93.00 185.41,93.90 186.00,95.00 C187.54,97.89 186.53,97.46 184.51,94.37 Z" fill="rgba(17,69,142,1)"/>
<path d="M 260.23 193.05 C258.42,191.92 256.51,189.84 255.98,188.43 C255.44,187.02 255.00,178.95 255.00,170.49 C255.00,161.23 254.60,154.87 253.99,154.49 C252.09,153.32 249.00,155.13 248.34,157.82 C247.67,160.48 243.68,170.54 240.69,177.09 C239.83,178.97 237.78,183.54 236.13,187.25 L 233.13 194.00 L 228.55 194.00 L 223.97 194.00 L 225.60 190.25 C226.50,188.19 227.81,184.70 228.51,182.50 C230.26,177.01 239.79,155.20 242.08,151.42 C244.40,147.60 247.78,146.00 253.53,146.00 C257.02,146.00 258.67,146.62 261.23,148.92 L 264.50 151.83 L 264.83 168.92 C265.15,184.99 265.28,186.00 267.09,186.00 C268.53,186.00 270.03,183.84 273.01,177.48 C275.20,172.80 277.00,168.78 277.00,168.55 C277.00,168.33 278.52,164.85 280.37,160.82 C282.22,156.80 284.02,152.58 284.37,151.47 C285.99,146.23 298.87,143.87 303.04,148.04 C306.55,151.55 307.00,154.58 307.00,174.57 L 307.00 194.00 L 302.52 194.00 L 298.04 194.00 L 297.77 174.25 C297.50,154.68 297.48,154.50 295.27,154.18 C293.38,153.91 292.53,154.97 289.65,161.18 C287.78,165.21 285.69,170.26 285.00,172.41 C282.31,180.74 277.02,190.94 274.54,192.57 C270.45,195.25 264.07,195.46 260.23,193.05 ZM 118.39 192.58 C118.10,191.81 118.00,189.89 118.18,188.33 L 118.50 185.50 L 135.79 185.00 C154.15,184.47 154.95,184.23 154.98,179.37 C155.01,175.41 152.43,174.53 139.08,173.98 C128.89,173.55 125.80,173.07 123.01,171.44 C116.12,167.41 115.71,154.55 122.32,149.61 C124.89,147.69 126.68,147.47 142.57,147.19 L 160.00 146.87 L 160.00 150.94 L 160.00 155.00 L 145.00 155.00 C131.33,155.00 129.82,155.18 128.00,157.00 C126.90,158.10 126.00,159.68 126.00,160.50 C126.00,161.32 126.90,162.90 128.00,164.00 C129.74,165.74 131.34,166.00 140.25,166.01 C152.63,166.01 156.69,167.02 160.56,171.06 C163.13,173.74 163.50,174.87 163.50,179.99 C163.50,184.84 163.07,186.30 161.00,188.55 C156.58,193.34 153.50,194.00 135.50,194.00 C122.14,194.00 118.83,193.73 118.39,192.58 ZM 183.46 192.94 C181.79,192.45 179.09,190.66 177.46,188.96 L 174.50 185.87 L 174.17 166.44 L 173.85 147.00 L 178.34 147.00 L 182.83 147.00 L 183.17 163.90 C183.59,185.46 183.29,185.00 197.00,185.00 C210.47,185.00 210.00,185.75 210.00,164.17 L 210.00 147.00 L 214.56 147.00 L 219.12 147.00 L 218.81 166.44 L 218.50 185.87 L 215.56 188.94 C213.94,190.63 211.01,192.46 209.06,193.00 C204.73,194.20 187.66,194.16 183.46,192.94 ZM 230.38 122.20 C230.72,121.64 231.26,118.82 231.59,115.93 C232.43,108.33 233.44,106.33 239.39,100.48 C243.40,96.54 246.20,94.76 250.61,93.36 C255.54,91.80 256.82,90.90 258.47,87.82 C260.40,84.22 260.40,84.10 258.56,82.07 C254.43,77.50 248.05,80.32 245.56,87.83 C243.76,93.25 235.60,103.05 230.98,105.36 C228.07,106.81 228.04,106.80 229.18,104.67 C229.83,103.48 230.45,101.00 230.58,99.17 C230.70,97.33 231.72,94.86 232.83,93.67 C233.94,92.48 235.14,90.15 235.49,88.50 C235.84,86.85 236.33,84.48 236.59,83.22 C237.24,80.04 243.87,72.96 247.72,71.35 C249.49,70.61 252.23,70.00 253.81,70.00 C257.55,70.00 260.11,67.20 259.32,63.96 C258.45,60.39 255.02,57.00 252.28,57.00 C245.92,57.00 234.96,47.44 232.41,39.66 C231.47,36.82 230.10,33.61 229.36,32.53 C228.08,30.67 227.47,27.00 228.44,27.00 C228.69,27.00 232.18,28.52 236.19,30.38 C243.68,33.84 248.31,37.95 255.32,47.35 C265.66,61.22 266.84,81.54 258.29,98.41 C254.82,105.26 245.78,115.12 239.61,118.78 C233.97,122.13 229.37,123.83 230.38,122.20 ZM 247.12 107.77 C252.56,101.85 252.23,99.46 246.47,103.02 C243.20,105.04 239.01,110.22 239.00,112.25 C238.99,114.51 242.91,112.35 247.12,107.77 ZM 251.07 47.12 C248.99,43.24 240.86,35.74 239.84,36.76 C237.51,39.09 245.84,49.00 250.11,49.00 C251.72,49.00 251.89,48.66 251.07,47.12 ZM 229.00 79.65 C229.00,77.32 231.15,72.00 232.10,72.00 C232.59,72.00 233.00,71.31 233.00,70.46 C233.00,69.62 233.72,67.84 234.59,66.50 C236.77,63.17 234.92,57.53 230.81,55.03 C229.17,54.04 228.28,52.95 228.81,52.61 C229.35,52.28 229.72,50.43 229.63,48.50 C229.53,46.37 229.93,45.00 230.65,45.00 C232.80,45.00 243.82,56.93 245.02,60.56 C246.62,65.40 245.66,68.32 240.77,73.64 C235.11,79.77 229.00,82.89 229.00,79.65 Z" fill="rgba(42,172,158,1)"/>
</g>
</svg>
