<svg viewBox="0 0 800 600" xmlns="http://www.w3.org/2000/svg">
  <defs>
    <linearGradient id="grad3" x1="0%" y1="0%" x2="100%" y2="100%">
      <stop offset="0%" style="stop-color:#1E293B;stop-opacity:1" />
      <stop offset="100%" style="stop-color:#0F172A;stop-opacity:1" />
    </linearGradient>
  </defs>
  <rect width="800" height="600" fill="url(#grad3)"/>
  <g opacity="0.8">
    <rect x="100" y="100" width="120" height="120" fill="#11448e" rx="10"/>
    <text x="160" y="165" font-size="24" font-weight="bold" text-anchor="middle" fill="white">1</text>
  </g>
  <line x1="220" y1="160" x2="280" y2="160" stroke="#11448e" stroke-width="3"/>
  <polygon points="290,160 270,150 270,170" fill="#11448e"/>
  <g opacity="0.9">
    <rect x="300" y="100" width="120" height="120" fill="#11448e" rx="10"/>
    <text x="360" y="165" font-size="24" font-weight="bold" text-anchor="middle" fill="white">2</text>
  </g>
  <line x1="420" y1="160" x2="480" y2="160" stroke="#11448e" stroke-width="3"/>
  <polygon points="490,160 470,150 470,170" fill="#11448e"/>
  <g opacity="1">
    <rect x="500" y="100" width="120" height="120" fill="#10B981" rx="10"/>
    <text x="560" y="165" font-size="24" font-weight="bold" text-anchor="middle" fill="white">3</text>
  </g>
  <g opacity="0.7">
    <rect x="100" y="280" width="120" height="120" fill="#11448e" rx="10"/>
    <text x="160" y="345" font-size="24" font-weight="bold" text-anchor="middle" fill="white">4</text>
  </g>
  <line x1="160" y1="220" x2="160" y2="280" stroke="#11448e" stroke-width="3"/>
  <polygon points="160,290 150,270 170,270" fill="#11448e"/>
  <text x="400" y="550" font-size="32" font-weight="bold" text-anchor="middle" fill="white" font-family="Arial">Processo Estruturado</text>
</svg>
