<svg viewBox="0 0 800 600" xmlns="http://www.w3.org/2000/svg">
  <defs>
    <linearGradient id="grad2" x1="0%" y1="0%" x2="100%" y2="100%">
      <stop offset="0%" style="stop-color:#7F1D1D;stop-opacity:0.3" />
      <stop offset="100%" style="stop-color:#0F172A;stop-opacity:1" />
    </linearGradient>
  </defs>
  <rect width="800" height="600" fill="url(#grad2)"/>
  
  <!-- Chaos - messy stack of boxes -->
  <rect x="100" y="80" width="100" height="80" fill="#EF4444" opacity="0.7" transform="rotate(-15 150 120)"/>
  <rect x="200" y="60" width="100" height="80" fill="#F97316" opacity="0.7" transform="rotate(12 250 100)"/>
  <rect x="280" y="120" width="100" height="80" fill="#EF4444" opacity="0.7" transform="rotate(-8 330 160)"/>
  <rect x="380" y="90" width="100" height="80" fill="#DC2626" opacity="0.7" transform="rotate(18 430 130)"/>
  <rect x="480" y="110" width="100" height="80" fill="#EF4444" opacity="0.7" transform="rotate(-10 530 150)"/>
  <rect x="580" y="70" width="100" height="80" fill="#F97316" opacity="0.7" transform="rotate(15 630 110)"/>
  
  <!-- Manual processes - stacked papers -->
  <rect x="120" y="280" width="80" height="100" fill="#94A3B8" opacity="0.8"/>
  <rect x="130" y="285" width="80" height="100" fill="#CBD5E1" opacity="0.8"/>
  <rect x="140" y="290" width="80" height="100" fill="#E2E8F0" opacity="0.8"/>
  <text x="180" y="350" font-size="16" font-weight="bold" text-anchor="middle" fill="#1E293B">📋</text>
  
  <rect x="420" y="280" width="80" height="100" fill="#94A3B8" opacity="0.8"/>
  <rect x="430" y="285" width="80" height="100" fill="#CBD5E1" opacity="0.8"/>
  <rect x="440" y="290" width="80" height="100" fill="#E2E8F0" opacity="0.8"/>
  <text x="480" y="350" font-size="16" font-weight="bold" text-anchor="middle" fill="#1E293B">📋</text>
  
  <rect x="620" y="280" width="80" height="100" fill="#94A3B8" opacity="0.8"/>
  <rect x="630" y="285" width="80" height="100" fill="#CBD5E1" opacity="0.8"/>
  <rect x="640" y="290" width="80" height="100" fill="#E2E8F0" opacity="0.8"/>
  <text x="680" y="350" font-size="16" font-weight="bold" text-anchor="middle" fill="#1E293B">📋</text>
  
  <!-- Down arrow -->
  <path d="M 400 420 L 400 480" stroke="#EF4444" stroke-width="4" fill="none"/>
  <polygon points="400,490 380,470 420,470" fill="#EF4444"/>
  
  <!-- Cost indicator -->
  <circle cx="400" cy="530" r="30" fill="#DC2626" opacity="0.8"/>
  <text x="400" y="540" font-size="24" font-weight="bold" text-anchor="middle" fill="white">💸</text>
  
  <text x="400" y="580" font-size="28" font-weight="bold" text-anchor="middle" fill="white" font-family="Arial">Processos Caóticos</text>
</svg>
